<?xml version="1.0" standalone="no"?>
<!DOCTYPE svg PUBLIC "-//W3C//DTD SVG 20010904//EN"
 "http://www.w3.org/TR/2001/REC-SVG-20010904/DTD/svg10.dtd">
<svg version="1.0" xmlns="http://www.w3.org/2000/svg"
 width="1024.000000pt" height="1024.000000pt" viewBox="0 0 1024.000000 1024.000000"
 preserveAspectRatio="xMidYMid meet">

<g transform="translate(0.000000,1024.000000) scale(0.100000,-0.100000)"
fill="#000000" stroke="none">
<path d="M5086 8288 c-8 -17 -12 -48 -9 -67 6 -49 -32 -100 -166 -221 -92 -84
-111 -107 -162 -200 -80 -142 -89 -177 -89 -330 l0 -126 -30 -34 c-17 -19 -33
-45 -35 -57 -3 -13 -7 -33 -10 -45 -2 -13 -11 -32 -19 -43 -13 -18 -18 -18
-48 -7 -43 15 -81 15 -96 0 -7 -7 -12 -37 -12 -68 0 -89 -23 -150 -83 -216
-154 -174 -215 -306 -233 -506 -14 -160 42 -380 133 -527 152 -243 413 -412
720 -466 203 -35 418 -3 603 90 316 159 492 398 545 741 38 242 -4 410 -155
613 -73 98 -83 126 -95 261 -4 36 -10 72 -15 79 -9 16 -60 17 -89 2 -51 -28
-73 -9 -85 69 -8 53 -21 70 -52 70 -33 0 -38 29 -23 122 15 93 4 185 -30 246
-11 20 -42 80 -68 132 -41 81 -63 109 -154 200 -140 140 -155 161 -161 234 -3
42 -10 63 -23 72 -29 22 -45 17 -59 -18z m52 -85 c3 -83 16 -134 44 -171 9
-13 15 -29 12 -36 -3 -7 1 -13 8 -13 7 0 50 -28 95 -62 72 -54 87 -71 114
-128 33 -70 50 -185 29 -198 -5 -3 -10 -13 -10 -21 0 -8 5 -12 10 -9 6 3 10 3
10 -1 0 -14 -53 -120 -75 -149 -42 -56 -68 -146 -45 -160 4 -2 6 11 4 30 -3
41 10 37 31 -8 l15 -32 -5 30 c-2 17 -7 39 -10 50 -5 15 7 35 44 75 28 30 51
59 51 63 0 5 10 5 23 2 18 -6 20 -5 10 6 -7 7 -13 23 -13 35 0 28 33 69 48 60
17 -10 15 -82 -4 -141 -8 -27 -17 -83 -19 -124 -5 -97 -26 -124 -88 -117 -23
3 -47 13 -53 21 -9 12 -13 13 -16 4 -3 -9 -13 -6 -34 8 -33 24 -74 38 -73 26
0 -10 109 -63 130 -63 8 0 19 -4 25 -9 12 -11 105 -33 112 -26 3 3 1 5 -4 5
-5 0 -16 5 -24 10 -13 8 -10 14 14 35 19 16 36 23 50 19 12 -3 30 2 41 11 19
15 18 16 -15 10 l-35 -6 33 17 c18 9 35 15 37 12 13 -12 34 -151 26 -166 -11
-20 -108 -45 -171 -44 -25 0 -68 9 -96 21 -69 27 -205 44 -284 36 -64 -6 -184
-32 -268 -57 -37 -11 -46 -10 -71 5 -16 9 -43 17 -60 17 -22 0 -31 5 -31 16 0
13 -8 15 -39 12 -37 -3 -39 -2 -25 13 9 10 24 15 37 12 21 -5 21 -5 3 9 -16
13 -17 20 -9 54 7 31 13 38 29 36 10 -2 38 -6 62 -7 48 -4 52 5 22 50 -17 26
-20 47 -19 160 0 162 10 189 38 103 7 -20 25 -53 42 -74 16 -20 27 -39 24 -42
-2 -2 7 -13 20 -24 25 -20 25 -38 -3 -70 -13 -16 -13 -18 0 -18 9 0 21 -7 28
-15 10 -13 15 -13 21 -3 16 26 20 -2 4 -32 -9 -18 -14 -34 -11 -38 3 -3 6 0 6
6 0 7 10 12 23 12 17 0 19 2 8 9 -12 8 -12 14 4 37 13 20 15 29 6 32 -7 2 -28
36 -47 76 -19 39 -48 96 -65 126 -27 50 -30 61 -26 130 6 111 60 220 109 220
11 0 17 4 14 9 -4 5 20 29 52 52 107 79 148 157 156 299 5 91 4 88 14 73 5 -7
9 -48 10 -90z m-109 -200 c-6 -10 -23 -27 -37 -37 -21 -15 -20 -12 7 17 38 41
47 46 30 20z m-359 -749 c0 -8 -9 -14 -20 -14 -11 0 -20 4 -20 10 0 5 8 6 17
3 13 -5 15 -2 10 11 -4 10 -3 15 3 11 6 -3 10 -13 10 -21z m-160 -140 c0 -2
-9 0 -20 6 -11 6 -20 13 -20 16 0 2 9 0 20 -6 11 -6 20 -13 20 -16z m1155 -4
c3 -5 1 -10 -4 -10 -6 0 -11 5 -11 10 0 6 2 10 4 10 3 0 8 -4 11 -10z m-339
-50 c119 -33 121 -34 129 -99 4 -30 15 -72 25 -91 17 -34 112 -130 158 -160
21 -14 33 -48 63 -170 11 -49 14 -156 5 -207 -5 -29 -4 -43 3 -43 6 0 11 9 11
19 0 11 5 23 11 27 8 4 9 0 4 -15 -3 -12 -8 -35 -10 -51 -2 -16 -10 -39 -18
-52 -8 -13 -17 -35 -21 -50 -3 -14 -21 -41 -38 -59 -18 -18 -27 -30 -21 -25 9
5 11 2 7 -8 -6 -14 -44 -19 -44 -5 0 4 12 17 26 28 27 21 59 75 74 124 14 44
-3 30 -28 -24 -57 -121 -233 -313 -322 -351 -25 -11 -64 -28 -88 -39 -93 -42
-258 -32 -365 22 -51 26 -211 187 -250 252 -51 84 -97 178 -97 197 0 10 -9 25
-19 32 -12 9 -21 28 -23 52 l-3 38 -11 -36 c-6 -19 -7 -33 -3 -30 4 2 6 -16 4
-40 -3 -25 0 -48 6 -51 5 -4 7 -14 4 -24 -3 -10 3 -20 17 -26 12 -6 23 -17 25
-25 3 -10 -1 -8 -11 4 -22 27 -20 7 1 -24 10 -14 16 -27 14 -30 -13 -18 -42
-28 -66 -24 -38 7 -42 10 -47 39 -5 22 -3 24 11 13 9 -7 22 -19 29 -27 9 -11
12 -12 12 -2 0 7 -13 29 -30 48 -16 18 -30 44 -30 58 0 13 -6 26 -12 28 -8 3
-6 6 5 6 12 1 17 -7 17 -23 0 -14 5 -28 11 -32 8 -5 9 6 4 35 -4 22 -3 41 2
41 9 0 13 -22 13 -72 0 -15 4 -29 9 -32 5 -3 7 13 5 37 -2 23 -4 50 -5 60 0 9
-6 17 -12 17 -7 0 -6 4 3 10 8 5 11 12 7 17 -5 4 -16 -2 -25 -14 -16 -21 -62
-29 -62 -11 0 4 -7 5 -15 2 -8 -4 -15 -17 -15 -29 0 -13 -4 -26 -8 -29 -11 -6
-4 86 9 129 8 27 8 27 3 -7 -3 -21 -3 -38 0 -38 2 0 11 -3 20 -6 10 -4 16 -1
16 7 0 25 65 147 85 159 19 12 20 12 2 -7 -10 -12 -19 -31 -20 -44 0 -13 -6
-27 -12 -31 -6 -5 -5 -8 3 -8 7 0 21 20 32 45 22 51 34 61 17 13 -9 -24 -9
-32 1 -35 7 -3 12 -21 12 -43 0 -21 5 -42 11 -46 8 -4 10 21 8 89 -2 52 -2 94
1 92 3 -2 11 21 18 51 17 70 51 144 82 176 130 136 153 172 154 242 1 35 5 50
16 51 8 2 40 10 70 20 156 48 321 53 456 15z m-615 -10 c10 0 25 -13 34 -29
14 -28 14 -47 -1 -119 -3 -13 -24 -43 -47 -67 -23 -24 -57 -59 -76 -79 -38
-40 -51 -44 -74 -18 -28 31 -64 142 -45 142 5 0 8 10 7 23 -2 12 0 28 5 35 5
8 4 18 -3 25 -17 17 -13 45 9 65 26 22 73 32 129 26 24 -2 52 -4 62 -4z m988
-4 c6 -7 15 -30 21 -52 9 -39 9 -38 4 10 -4 36 -3 46 7 41 15 -10 4 -143 -15
-164 -7 -9 -16 -40 -20 -69 -9 -73 -14 -82 -45 -82 -19 0 -42 16 -82 58 -67
69 -78 88 -88 154 -13 83 24 110 154 115 33 1 58 -3 64 -11z m-1288 -139 c-13
-13 -15 1 -4 30 7 17 8 17 11 -1 2 -10 -1 -23 -7 -29z m1444 -36 c3 -11 34
-61 68 -113 66 -101 122 -228 139 -317 5 -31 8 -112 5 -181 -4 -107 -9 -139
-37 -220 -69 -204 -212 -375 -421 -503 -101 -63 -176 -92 -300 -118 -428 -88
-926 146 -1095 516 -111 241 -107 553 9 726 40 58 169 209 180 209 5 0 6 -4 2
-9 -8 -14 14 -98 37 -141 33 -63 24 -101 -50 -214 -61 -92 -77 -160 -69 -290
5 -95 21 -148 74 -251 52 -100 119 -165 271 -262 306 -196 752 -152 1013 99
54 52 118 136 147 194 32 63 62 190 62 263 0 100 -25 172 -86 246 -40 49 -59
121 -43 162 l11 28 21 -44 c12 -25 29 -47 37 -49 12 -4 13 -2 3 9 -7 7 -13 19
-13 27 0 8 -9 27 -21 43 -17 25 -19 35 -11 57 6 15 18 55 28 90 17 64 28 76
39 43z m-1368 -273 c-3 -7 -5 -2 -5 12 0 14 2 19 5 13 2 -7 2 -19 0 -25z m34
-65 c-10 -17 -10 -16 -11 3 0 23 13 41 18 25 2 -6 -1 -18 -7 -28z m-75 -5
c-19 -26 -21 -42 -4 -32 6 4 -3 -19 -20 -51 -17 -32 -34 -73 -38 -91 -3 -19
-10 -32 -14 -29 -10 6 8 84 24 104 8 11 8 13 -1 7 -7 -4 -13 -2 -13 3 0 6 5
11 10 11 6 0 9 4 8 8 -4 10 54 103 60 97 2 -2 -3 -14 -12 -27z m1304 11 c0 -6
-4 -7 -10 -4 -5 3 -10 11 -10 16 0 6 5 7 10 4 6 -3 10 -11 10 -16z m80 -133
c0 5 -5 15 -12 22 -6 6 -9 14 -6 18 12 11 49 -76 55 -127 5 -42 4 -49 -10 -43
-19 7 -38 59 -30 81 4 11 3 14 -5 9 -7 -4 -12 -1 -12 9 0 10 -5 13 -12 9 -7
-4 -10 -4 -6 1 4 4 1 20 -7 36 -23 43 -18 47 15 9 16 -19 29 -30 30 -24z m-50
-41 c20 -24 6 -28 -15 -5 -10 11 -13 20 -8 20 6 0 16 -7 23 -15z m4 -39 c8 3
20 -9 29 -28 9 -18 25 -39 36 -46 13 -7 21 -23 21 -40 0 -31 -7 -42 -59 -87
l-34 -30 27 40 c14 22 26 51 25 65 0 24 -1 23 -12 -6 -15 -39 -46 -82 -67 -89
-12 -5 -13 -4 -2 6 22 23 12 33 -11 11 -13 -12 -27 -22 -32 -22 -14 0 -32 -33
-28 -51 3 -9 14 -20 25 -23 19 -4 20 -10 14 -73 -4 -37 -7 -78 -7 -90 1 -23
-51 -73 -75 -73 -9 0 -13 -3 -11 -7 8 -13 -146 1 -170 15 -25 14 -37 44 -28
70 3 9 28 35 56 57 27 22 56 52 64 67 23 41 44 58 76 58 19 0 29 5 29 15 0 9
7 18 15 21 8 4 15 11 15 18 0 6 15 18 32 26 18 8 34 22 36 30 4 13 2 13 -14
-1 -10 -9 -26 -20 -34 -24 -12 -7 -12 -5 1 11 16 18 64 106 60 112 0 1 2 3 7
5 4 1 8 -23 9 -53 1 -44 0 -49 -7 -25 l-8 30 -1 -32 c0 -17 4 -35 9 -38 12 -8
30 36 30 75 0 16 5 30 11 32 19 6 -2 37 -24 35 -18 -2 -22 4 -24 28 -1 17 0
25 3 18 3 -7 11 -10 18 -7z m-1414 -121 c-7 -45 -7 -46 -9 -13 -1 32 8 74 14
66 1 -2 -1 -25 -5 -53z m42 8 c1 -16 1 -39 0 -52 -1 -28 27 -81 44 -81 17 0
27 -31 13 -44 -8 -8 -10 -7 -8 4 2 8 -14 32 -34 53 -33 35 -37 44 -37 93 0 55
18 77 22 27z m-65 -45 c-3 -7 -5 -2 -5 12 0 14 2 19 5 13 2 -7 2 -19 0 -25z
m237 -34 c9 -8 16 -24 16 -34 0 -10 8 -25 19 -32 10 -7 21 -22 25 -33 3 -11
24 -38 47 -60 23 -22 54 -53 70 -69 16 -15 29 -33 29 -38 0 -6 -15 -25 -34
-43 -26 -24 -41 -31 -60 -28 -14 3 -26 1 -26 -3 0 -18 -92 -2 -114 20 -23 23
-24 27 -32 104 -4 36 -10 52 -21 52 -10 0 -13 9 -11 32 2 26 11 35 48 54 25
13 37 24 28 24 -20 0 -25 35 -7 46 8 4 7 9 -2 15 -9 6 -10 9 -2 9 6 0 19 -7
27 -16z m-200 -10 c3 -8 2 -12 -4 -9 -6 3 -10 10 -10 16 0 14 7 11 14 -7z
m1466 -16 c0 -19 -2 -20 -10 -8 -13 19 -13 30 0 30 6 0 10 -10 10 -22z m-110
-38 c0 -5 -12 -10 -27 -10 -22 0 -25 2 -13 10 20 13 40 13 40 0z m30 -10 c-8
-5 -17 -7 -19 -4 -3 3 1 9 9 14 8 5 17 7 19 4 3 -3 -1 -9 -9 -14z m26 -32
c-18 -26 -22 -17 -5 14 6 11 13 17 16 15 3 -3 -2 -16 -11 -29z m-919 -213 c18
-11 33 -24 33 -29 0 -6 -5 -5 -12 2 -16 16 -33 15 -20 -1 9 -10 2 -13 -31 -14
-23 0 -34 2 -24 4 9 3 17 11 17 19 0 12 -4 13 -22 4 -21 -10 -21 -10 -5 3 9 8
17 20 17 26 0 14 2 14 47 -14z m428 -25 c3 -5 -1 -10 -10 -10 -9 0 -13 5 -10
10 3 6 8 10 10 10 2 0 7 -4 10 -10z m50 0 c-3 -5 -12 -10 -18 -10 -7 0 -6 4 3
10 19 12 23 12 15 0z m-285 -40 c11 -15 50 -17 69 -3 11 7 38 13 59 12 32 -2
38 -6 34 -21 -5 -22 -22 -24 -22 -2 0 20 -52 15 -58 -6 -4 -12 -2 -13 9 -2 22
21 31 13 10 -10 -16 -16 -18 -25 -10 -35 9 -10 7 -13 -5 -13 -10 0 -15 -4 -11
-9 3 -5 1 -12 -4 -15 -5 -4 -12 -2 -16 4 -13 22 -23 8 -18 -24 5 -33 4 -35
-22 -32 -29 3 -46 36 -19 36 9 0 12 -4 9 -10 -3 -5 0 -10 8 -10 10 0 13 7 10
21 -3 11 -11 18 -18 15 -17 -6 -27 18 -12 33 18 18 -20 52 -52 46 -26 -5 -26
-5 -3 5 13 5 28 8 33 4 5 -3 9 0 9 7 0 9 -21 10 -81 6 -87 -6 -97 -1 -28 12
45 9 120 3 129 -9z m316 3 c10 -13 16 -15 21 -6 10 14 24 16 93 13 l55 -3 -65
-9 c-36 -5 -81 -10 -101 -12 -20 -2 -43 -7 -52 -12 -23 -13 -11 -49 20 -63 30
-14 29 -15 -21 -36 l-37 -16 3 33 c2 23 -1 32 -10 30 -10 -2 -10 2 -2 17 15
30 12 59 -7 64 -10 2 -1 4 20 4 21 1 41 4 44 7 11 11 25 6 39 -11z m-511 -3
c8 -13 -15 -13 -35 0 -12 8 -11 10 7 10 12 0 25 -4 28 -10z m238 3 c-7 -2 -19
-2 -25 0 -7 3 -2 5 12 5 14 0 19 -2 13 -5z m496 4 c-21 -15 -59 -37 -59 -33 0
11 33 36 47 36 9 0 14 -1 12 -3z m-750 -33 c2 -2 -7 -4 -22 -4 -14 0 -29 5
-32 10 -6 10 42 4 54 -6z m98 2 c-3 -8 1 -20 9 -26 19 -16 18 -36 -2 -44 -22
-8 -67 3 -81 21 -10 13 -14 13 -32 1 -23 -16 -18 -29 7 -22 10 3 6 -1 -7 -8
-19 -10 -25 -10 -29 0 -2 6 -15 12 -28 12 -13 0 -33 5 -43 12 -18 11 -18 12 7
26 17 8 40 11 60 7 19 -3 39 -1 47 5 9 8 14 7 19 -5 3 -8 13 -15 23 -15 15 0
16 -2 3 -11 -12 -7 -8 -9 14 -7 16 2 32 9 34 17 3 10 0 12 -11 8 -19 -7 -28
13 -13 30 15 17 29 16 23 -1z m328 -6 c3 -6 -1 -7 -9 -4 -18 7 -21 14 -7 14 6
0 13 -4 16 -10z m185 3 c-8 -3 -21 -12 -27 -21 -11 -14 -13 -14 -13 -1 0 21
10 29 34 28 14 0 16 -2 6 -6z m-95 -31 c-6 -7 -34 11 -29 19 3 5 11 3 19 -4 7
-6 12 -13 10 -15z m-330 8 c3 -6 -1 -7 -9 -4 -18 7 -21 14 -7 14 6 0 13 -4 16
-10z m219 4 c9 -3 14 -10 11 -15 -7 -10 -35 0 -35 12 0 11 3 11 24 3z m-24
-24 c6 -11 20 -20 30 -20 11 0 20 -5 20 -11 0 -6 -7 -8 -16 -5 -9 3 -27 9 -40
12 -14 4 -29 15 -35 25 -8 16 -6 19 10 19 11 0 25 -9 31 -20z m230 -3 c-14 -8
-27 -12 -30 -10 -7 6 23 23 40 23 8 0 4 -6 -10 -13z m-50 -1 c0 -2 -7 -7 -16
-10 -8 -3 -12 -2 -9 4 6 10 25 14 25 6z m-163 -36 c8 0 12 -4 9 -9 -4 -5 -1
-11 5 -13 6 -2 -7 -4 -28 -5 -30 -1 -42 3 -52 19 -12 20 -11 21 19 14 18 -3
39 -6 47 -6z m-362 -10 c18 -8 17 -9 -7 -9 -16 -1 -28 4 -28 9 0 12 8 12 35 0z
m117 -10 c29 -18 30 -20 11 -20 -13 0 -23 4 -23 9 0 4 -11 6 -25 3 -35 -6 -34
15 2 27 2 1 17 -8 35 -19z m148 -1 c0 -5 5 -7 10 -4 6 3 10 1 10 -4 0 -6 -3
-11 -7 -11 -5 0 -19 -3 -33 -5 -22 -5 -22 -4 -5 4 17 8 18 10 3 10 -25 1 -23
21 2 21 11 0 20 -5 20 -11z"/>
<path d="M5200 7966 c0 -2 8 -10 18 -17 15 -13 16 -12 3 4 -13 16 -21 21 -21
13z"/>
<path d="M5090 7929 c0 -5 5 -7 10 -4 6 3 10 8 10 11 0 2 -4 4 -10 4 -5 0 -10
-5 -10 -11z"/>
<path d="M5247 7858 c11 -13 23 -36 27 -51 6 -27 26 -29 26 -2 0 17 -48 75
-63 75 -6 0 -1 -10 10 -22z"/>
<path d="M4944 7810 c0 -11 4 -20 8 -20 4 0 8 9 8 20 0 11 -4 20 -8 20 -4 0
-8 -9 -8 -20z"/>
<path d="M4998 7799 c-21 -11 -38 -25 -38 -32 -1 -6 -9 -2 -20 11 l-19 23 -3
-33 c-2 -19 -8 -32 -15 -31 -8 2 -9 -6 -2 -30 12 -41 12 -42 -5 -28 -11 9 -15
7 -20 -11 -8 -33 -7 -50 3 -44 5 3 9 -10 9 -30 0 -23 6 -40 19 -49 24 -17 80
-130 89 -178 6 -35 3 -41 -36 -77 -24 -22 -41 -40 -38 -40 11 0 73 30 89 43
18 14 59 94 63 124 2 14 12 18 41 18 36 0 38 -2 50 -42 7 -22 23 -56 35 -75
13 -18 24 -34 24 -34 1 -1 11 -5 24 -8 28 -9 29 10 1 33 -32 25 -28 81 10 139
17 27 31 54 31 61 0 7 8 26 17 44 9 18 16 35 16 38 -1 3 9 12 22 19 30 16 31
30 5 72 -12 19 -20 51 -20 76 0 23 -5 42 -11 42 -5 0 -9 -8 -8 -17 1 -10 0
-31 0 -48 -2 -29 -3 -29 -12 -7 -31 79 -205 119 -301 71z m264 -68 c34 -38 38
-102 9 -159 -22 -44 -44 -64 -88 -82 -18 -7 -33 -16 -33 -21 0 -16 -53 -9 -97
12 -54 26 -99 89 -108 151 -6 40 -4 49 14 64 12 10 21 23 21 30 0 41 95 66
189 48 52 -9 71 -18 93 -43z m-245 -333 c-3 -8 -6 -5 -6 6 -1 11 2 17 5 13 3
-3 4 -12 1 -19z"/>
<path d="M5106 7759 c3 -5 -3 -12 -13 -16 -37 -13 -38 -43 -2 -43 13 0 19 7
20 23 1 16 4 13 11 -13 6 -19 13 -29 15 -22 3 6 12 12 21 13 11 0 12 2 4 6 -6
2 -9 10 -5 16 4 7 0 8 -12 4 -14 -6 -16 -3 -12 12 3 13 -1 21 -14 24 -11 3
-16 1 -13 -4z"/>
<path d="M5030 7691 c0 -5 -9 -11 -21 -14 -23 -6 -17 -27 7 -27 8 0 14 -6 14
-14 0 -17 18 -31 27 -22 3 3 0 12 -7 21 -22 26 -10 29 80 21 25 -2 52 0 60 4
8 5 22 4 32 -1 11 -6 18 -6 18 0 0 11 -31 25 -45 21 -59 -16 -77 -17 -82 -4
-4 11 -9 12 -18 4 -9 -8 -17 -6 -28 5 -17 17 -37 20 -37 6z"/>
<path d="M5210 7631 c0 -5 -13 -11 -30 -14 -16 -4 -30 -13 -30 -20 0 -12 8
-10 40 5 37 19 53 38 30 38 -5 0 -10 -4 -10 -9z"/>
<path d="M5000 7620 c0 -5 5 -10 11 -10 5 0 7 5 4 10 -3 6 -8 10 -11 10 -2 0
-4 -4 -4 -10z"/>
<path d="M5073 7600 c-15 -23 -7 -29 35 -28 19 1 32 6 32 14 0 9 -8 10 -30 4
-31 -9 -38 -2 -18 18 7 7 8 12 2 12 -5 0 -15 -9 -21 -20z"/>
<path d="M5073 7545 c2 -5 14 -12 27 -13 18 -3 20 -6 9 -13 -12 -7 -11 -9 2
-9 14 0 49 29 49 41 0 2 -20 4 -45 4 -26 0 -44 -4 -42 -10z"/>
<path d="M5361 7584 c0 -11 3 -14 6 -6 3 7 2 16 -1 19 -3 4 -6 -2 -5 -13z"/>
<path d="M5268 7390 c-3 -16 -1 -30 4 -30 4 0 8 14 8 30 0 17 -2 30 -4 30 -2
0 -6 -13 -8 -30z"/>
<path d="M5450 7345 c7 -9 15 -13 17 -11 7 7 -7 26 -19 26 -6 0 -6 -6 2 -15z"/>
<path d="M5103 7307 c-6 -13 -9 -36 -6 -51 4 -17 1 -31 -7 -36 -13 -8 -5 -30
11 -30 6 0 8 4 5 9 -10 15 22 33 45 26 31 -10 14 13 -19 26 -19 7 -22 13 -14
21 14 14 16 58 4 58 -5 0 -14 -10 -19 -23z"/>
<path d="M5385 7310 c3 -5 10 -10 16 -10 5 0 9 5 9 10 0 6 -7 10 -16 10 -8 0
-12 -4 -9 -10z"/>
<path d="M5398 7233 c6 -2 18 -2 25 0 6 3 1 5 -13 5 -14 0 -19 -2 -12 -5z"/>
<path d="M4835 7168 c-58 -25 -60 -26 -53 -33 2 -3 30 4 61 15 31 11 69 20 84
20 16 0 35 5 43 10 31 20 -85 10 -135 -12z"/>
<path d="M4983 6998 c-72 -24 -135 -79 -179 -154 -15 -27 -47 -66 -71 -87 -64
-58 -105 -149 -111 -249 -4 -61 -1 -82 9 -89 10 -6 14 -35 14 -111 0 -99 1
-105 34 -163 46 -80 134 -171 196 -203 39 -20 71 -26 145 -31 148 -9 277 2
333 29 102 48 200 165 232 274 22 74 17 186 -8 214 -19 21 -23 52 -6 52 8 0
10 21 7 70 -7 88 -44 166 -114 237 -28 28 -56 64 -63 81 -24 57 -129 133 -204
147 -38 7 -56 -7 -38 -29 7 -8 10 -19 9 -25 -2 -6 24 -22 57 -36 69 -28 130
-88 145 -144 13 -49 -4 -154 -32 -191 -58 -79 -136 -53 -204 68 -1 1 -13 -3
-27 -9 -20 -9 -30 -9 -40 0 -31 25 -129 -31 -101 -59 5 -5 32 -11 59 -12 42
-3 50 -6 53 -24 5 -34 -44 -67 -87 -60 -52 8 -127 63 -139 102 -10 33 -9 33
54 75 49 31 75 42 109 43 56 3 87 26 35 26 -83 1 -74 45 15 75 18 6 18 7 4 15
-37 21 -147 -37 -175 -92 -22 -43 -21 -43 -39 -28 -22 19 -18 78 9 124 31 54
140 117 122 71 -8 -23 19 -18 48 8 15 14 27 38 31 65 8 50 6 50 -82 20z m-207
-356 c-5 -51 -3 -72 8 -87 10 -14 11 -24 4 -32 -8 -10 -4 -13 14 -13 32 0 98
-61 98 -90 0 -42 -24 -103 -42 -108 -10 -2 -18 -11 -18 -18 0 -18 -15 -18 -34
1 -8 8 -17 15 -19 15 -9 0 -14 -51 -6 -56 5 -3 9 3 9 12 0 10 3 14 7 10 4 -4
8 -15 8 -24 0 -21 63 -28 85 -9 28 22 50 66 51 99 0 18 4 42 9 53 7 18 10 15
25 -20 43 -98 20 -178 -64 -222 -88 -46 -163 -22 -196 63 -36 93 0 183 67 169
53 -12 17 52 -40 70 -43 13 -70 83 -51 133 14 36 72 121 83 122 5 0 6 -30 2
-68z m700 27 c29 -47 43 -134 25 -167 l-11 -21 -49 26 c-50 27 -57 47 -25 74
9 7 14 31 14 64 0 45 5 65 17 65 1 0 14 -19 29 -41z m-236 -183 c17 -2 47 0
67 4 29 7 48 2 119 -32 51 -24 91 -50 102 -66 25 -38 23 -154 -2 -206 -22 -44
-96 -126 -113 -126 -7 0 -18 -9 -26 -21 -32 -45 -79 -69 -134 -69 -47 0 -56 4
-88 35 -36 37 -51 74 -41 101 5 13 11 12 37 -10 35 -30 107 -35 162 -12 94 39
145 199 91 281 -21 32 -67 48 -129 46 -69 -2 -95 13 -95 57 0 18 4 31 9 27 5
-3 24 -7 41 -9z m-104 -123 c-10 -149 -34 -225 -93 -289 -63 -68 -63 -67 -13
-60 39 5 47 3 72 -21 31 -29 35 -39 16 -40 -97 -6 -120 -4 -180 17 -70 23 -94
41 -100 75 -2 14 4 21 22 25 14 3 51 20 84 39 80 46 100 91 94 207 -3 59 -9
89 -21 102 -24 26 -22 28 24 24 22 -3 46 1 52 7 6 6 20 11 31 11 18 0 19 -5
12 -97z m209 -15 c83 -72 13 -238 -101 -238 -41 0 -65 65 -62 162 3 70 6 82
21 84 11 1 21 5 25 8 3 3 25 6 48 6 30 0 51 -7 69 -22z"/>
<path d="M5480 6390 c0 -5 5 -10 11 -10 5 0 7 5 4 10 -3 6 -8 10 -11 10 -2 0
-4 -4 -4 -10z"/>
<path d="M5057 6423 c-4 -3 -7 -11 -7 -17 0 -6 5 -5 12 2 6 6 9 14 7 17 -3 3
-9 2 -12 -2z"/>
<path d="M5234 6267 c-2 -7 2 -27 11 -43 8 -16 15 -23 15 -16 0 7 5 10 10 7 6
-3 10 1 10 10 0 9 -7 15 -16 13 -10 -2 -19 3 -21 10 -3 6 0 12 6 12 6 0 11 5
11 10 0 15 -20 12 -26 -3z"/>
<path d="M5085 6800 c-3 -5 1 -10 9 -10 9 0 16 5 16 10 0 6 -4 10 -9 10 -6 0
-13 -4 -16 -10z"/>
<path d="M5192 6778 c-17 -17 -15 -63 3 -78 8 -7 15 -18 15 -26 0 -7 9 -18 21
-24 27 -15 45 1 61 51 10 36 9 41 -12 64 -25 27 -68 33 -88 13z"/>
<path d="M5605 6665 c21 -59 36 -114 40 -145 3 -19 12 -57 20 -85 l15 -50 -6
65 c-6 75 -38 189 -60 217 -15 17 -15 17 -9 -2z"/>
<path d="M4455 6371 c3 -5 1 -12 -5 -16 -5 -3 -10 -1 -10 5 0 6 -5 8 -10 5 -6
-4 -8 -10 -5 -15 3 -4 -2 -13 -10 -20 -24 -20 -18 -29 10 -17 14 7 28 20 31
30 3 9 10 17 15 17 5 0 9 5 9 10 0 6 -7 10 -16 10 -8 0 -13 -4 -9 -9z"/>
<path d="M4490 6153 c0 -10 4 -25 10 -33 8 -12 10 -12 15 3 4 9 0 23 -9 32
-15 15 -16 15 -16 -2z"/>
<path d="M4677 6974 c-8 -8 1 -24 14 -24 5 0 9 7 9 15 0 15 -12 20 -23 9z"/>
<path d="M4580 6955 c0 -9 5 -15 11 -13 6 2 11 8 11 13 0 5 -5 11 -11 13 -6 2
-11 -4 -11 -13z"/>
<path d="M4610 6904 c0 -8 5 -12 10 -9 6 3 10 10 10 16 0 5 -4 9 -10 9 -5 0
-10 -7 -10 -16z"/>
<path d="M4600 6814 c0 -8 5 -12 10 -9 6 3 10 10 10 16 0 5 -4 9 -10 9 -5 0
-10 -7 -10 -16z"/>
<path d="M5550 7010 c0 -5 5 -10 10 -10 6 0 10 5 10 10 0 6 -4 10 -10 10 -5 0
-10 -4 -10 -10z"/>
<path d="M5520 6900 c0 -5 5 -10 11 -10 5 0 7 5 4 10 -3 6 -8 10 -11 10 -2 0
-4 -4 -4 -10z"/>
<path d="M5640 6890 c0 -5 5 -10 10 -10 6 0 10 5 10 10 0 6 -4 10 -10 10 -5 0
-10 -4 -10 -10z"/>
<path d="M5640 6800 c0 -11 4 -20 8 -20 4 0 8 9 9 20 1 11 -2 20 -8 20 -5 0
-9 -9 -9 -20z"/>
<path d="M5920 6678 c0 -19 2 -20 10 -8 13 19 13 30 0 30 -5 0 -10 -10 -10
-22z"/>
<path d="M4376 6674 c-9 -24 -7 -28 9 -14 17 14 20 30 6 30 -5 0 -12 -7 -15
-16z"/>
<path d="M5950 6643 c0 -6 8 -17 18 -24 16 -13 16 -13 2 6 -8 11 -16 22 -17
24 -2 2 -3 0 -3 -6z"/>
<path d="M5850 6613 c0 -13 48 -54 53 -45 3 4 -9 17 -24 30 -16 13 -29 19 -29
15z"/>
<path d="M4323 6603 c-23 -8 -13 -20 17 -20 17 0 30 2 30 3 0 8 -36 21 -47 17z"/>
<path d="M4216 6591 c-4 -7 -5 -15 -2 -18 9 -9 19 4 14 18 -4 11 -6 11 -12 0z"/>
<path d="M5790 6551 c0 -6 10 -17 22 -25 19 -14 23 -14 34 2 7 9 10 19 8 22
-3 2 -9 -2 -15 -10 -8 -13 -11 -13 -23 3 -15 19 -26 22 -26 8z"/>
<path d="M4210 6482 c-94 -94 -49 -431 84 -630 64 -95 203 -227 295 -280 41
-24 135 -63 210 -88 127 -43 145 -46 269 -51 242 -10 399 34 584 164 89 62 97
72 75 88 -10 7 -17 17 -17 24 0 6 -8 19 -17 29 -17 16 -21 15 -80 -30 -142
-107 -319 -163 -500 -160 -263 5 -495 108 -678 301 -28 29 -42 37 -61 33 -13
-2 -27 -8 -30 -13 -3 -5 -13 -9 -24 -9 -17 0 -31 19 -36 50 -1 8 -5 23 -9 33
-4 10 -3 17 4 17 17 0 13 26 -6 41 -11 10 -14 10 -9 2 4 -7 2 -13 -3 -13 -18
0 -13 50 6 57 19 7 57 -33 49 -53 -3 -7 4 -20 15 -30 26 -24 25 -6 -7 86 -35
100 -45 278 -20 364 16 55 16 59 0 77 -24 27 -61 23 -94 -9z m50 -69 c0 -5 -5
-15 -10 -23 -7 -11 -12 -12 -21 -3 -6 6 -8 16 -5 22 8 12 36 15 36 4z m-26
-39 c25 -9 19 -24 -9 -24 -24 0 -32 10 -18 23 8 8 8 8 27 1z m11 -44 c-3 -5
-15 -10 -25 -10 -10 0 -22 5 -25 10 -4 6 7 10 25 10 18 0 29 -4 25 -10z m5
-31 c0 -5 -6 -9 -12 -10 -7 0 -21 -2 -30 -4 -17 -3 -24 6 -13 17 9 9 55 6 55
-3z m0 -39 c0 -5 -11 -10 -24 -10 -14 0 -28 5 -31 10 -4 6 7 10 24 10 17 0 31
-4 31 -10z m-5 -31 c11 -16 -4 -61 -17 -53 -8 5 -9 2 -5 -10 5 -12 3 -16 -5
-14 -7 3 -14 15 -14 27 -1 17 3 22 17 18 12 -3 19 0 19 8 0 8 -8 11 -20 8 -11
-3 -20 -1 -20 4 0 23 33 32 45 12z m15 -89 c0 -5 -7 -10 -16 -10 -8 0 -12 5
-9 10 3 6 10 10 16 10 5 0 9 -4 9 -10z m5 -30 c-3 -5 -13 -10 -21 -10 -8 0
-14 5 -14 10 0 6 9 10 21 10 11 0 17 -4 14 -10z m118 -270 c-3 -12 -8 -19 -11
-16 -5 6 5 36 12 36 2 0 2 -9 -1 -20z m100 -64 c21 -16 22 -32 2 -40 -8 -3
-12 -12 -9 -20 7 -19 -14 -30 -31 -16 -18 15 -19 44 -3 70 15 23 17 24 41 6z
m1217 -77 c0 -5 -7 -9 -15 -9 -8 0 -15 7 -15 15 0 9 6 12 15 9 8 -4 15 -10 15
-15z m-1093 -38 c0 -11 -4 -18 -8 -15 -17 10 -20 -20 -4 -33 11 -7 13 -13 6
-13 -7 0 -19 7 -28 16 -14 14 -13 17 7 40 28 29 29 29 27 5z m1027 -20 c15
-17 15 -19 -1 -32 -10 -7 -15 -9 -10 -4 4 4 -3 19 -15 32 -16 18 -18 23 -6 23
8 0 22 -8 32 -19z m-49 -18 c0 -6 3 -15 8 -19 12 -13 8 -24 -8 -18 -8 4 -15
12 -15 20 0 8 -5 14 -11 14 -5 0 -7 5 -4 11 8 12 30 6 30 -8z m-915 -23 c-6
-12 -14 -19 -17 -17 -2 3 1 15 7 27 6 12 14 19 17 17 2 -3 -1 -15 -7 -27z
m881 -6 c13 -36 2 -44 -20 -15 -15 20 -21 22 -39 12 -15 -8 -20 -20 -19 -39 2
-22 -2 -27 -20 -26 -12 0 -20 -3 -17 -7 2 -4 0 -10 -5 -13 -5 -3 -11 4 -15 17
-11 40 -7 48 15 26 11 -11 24 -18 27 -14 4 4 -1 12 -11 19 -17 13 -23 28 -9
24 4 -1 22 6 40 15 18 10 37 15 42 12 6 -3 10 -1 10 4 0 19 10 12 21 -15z
m-831 2 c0 -24 -12 -46 -24 -46 -15 0 -17 30 -3 48 13 16 27 15 27 -2z m109
-28 c11 3 12 -1 8 -19 -4 -13 -7 -27 -7 -31 0 -5 -7 -8 -15 -8 -9 0 -15 9 -15
25 0 14 -4 25 -10 25 -5 0 -7 -7 -4 -15 5 -11 -1 -15 -22 -15 -22 0 -25 3 -16
12 7 7 12 20 12 30 0 17 2 17 28 5 15 -8 33 -12 41 -9z m689 -12 c3 -11 -1
-17 -9 -14 -7 2 -13 12 -15 22 -3 23 20 15 24 -8z m-647 -9 c-1 -4 -1 -18 -1
-32 0 -16 -4 -23 -13 -19 -15 6 -10 67 5 62 5 -2 9 -7 9 -11z m528 -34 c1 -18
-18 -16 -25 2 -4 8 -3 23 1 33 7 16 8 15 15 -3 5 -11 9 -26 9 -32z m-482 26
c7 -7 7 -17 -1 -35 -11 -24 -32 -28 -30 -6 1 7 2 21 3 32 1 22 11 26 28 9z
m437 -14 c3 -8 1 -15 -4 -15 -6 0 -10 5 -10 10 0 19 -16 10 -17 -10 -1 -11 1
-19 5 -19 25 4 34 -4 14 -12 -28 -11 -42 -4 -42 20 0 35 42 55 54 26z m-389
-17 c-15 -48 -43 -51 -31 -3 4 14 13 25 22 25 11 0 14 -6 9 -22z m320 12 c-3
-5 -10 -10 -16 -10 -5 0 -9 5 -9 10 0 6 7 10 16 10 8 0 12 -4 9 -10z m-235
-28 c0 -9 -9 -23 -20 -30 -18 -11 -20 -10 -20 18 0 23 4 30 20 30 12 0 20 -7
20 -18z m35 8 c-3 -5 -2 -10 4 -10 5 0 12 6 14 13 4 9 6 9 6 0 1 -6 -3 -14 -9
-18 -5 -3 -7 -12 -3 -20 6 -17 2 -18 -21 -9 -25 9 -19 54 6 54 5 0 6 -4 3 -10z
m130 -20 c0 -13 -4 -25 -10 -27 -5 -1 -10 11 -10 27 0 17 5 29 10 27 6 -2 10
-14 10 -27z m63 -11 c-3 -8 -7 -3 -11 10 -4 17 -3 21 5 13 5 -5 8 -16 6 -23z"/>
<path d="M5894 6490 c-8 -8 -6 -30 7 -83 52 -197 1 -388 -152 -576 l-28 -35
39 -23 c26 -16 37 -29 33 -38 -12 -33 16 -12 65 48 121 149 182 322 182 513 0
97 -3 116 -23 155 -22 41 -27 44 -68 47 -24 2 -49 -2 -55 -8z m100 -142 c6
-25 3 -28 -18 -28 -18 0 -23 5 -23 25 0 14 6 26 16 28 20 4 17 7 25 -25z m12
-53 c-23 -17 -42 -19 -51 -6 -5 9 18 17 55 19 11 1 10 -3 -4 -13z m4 -35 c0
-5 -11 -10 -24 -10 -14 0 -28 5 -31 10 -4 6 7 10 24 10 17 0 31 -4 31 -10z m0
-40 c0 -6 -9 -10 -21 -10 -12 0 -17 -4 -14 -11 4 -6 13 -8 20 -5 8 3 13 -4 13
-21 0 -20 -4 -24 -22 -19 -11 3 -24 6 -28 6 -5 0 -8 4 -8 10 0 5 8 7 18 3 14
-5 15 -3 5 8 -21 22 -15 44 12 47 14 1 25 -3 25 -8z m-11 -86 c10 -9 -6 -12
-31 -7 -15 3 -25 9 -22 15 5 8 41 2 53 -8z m-33 -54 c8 0 14 -5 14 -11 0 -6
-9 -8 -21 -4 -14 5 -25 2 -30 -6 -6 -10 -9 -7 -9 10 0 17 4 22 16 17 9 -3 22
-6 30 -6z m-21 -80 c-6 -10 -45 -1 -45 10 0 4 11 5 25 2 14 -2 23 -8 20 -12z
m-10 -20 c11 0 8 -12 -9 -51 -13 -27 -26 -52 -29 -55 -10 -11 -57 9 -57 24 0
18 38 62 54 62 6 0 4 -5 -4 -10 -12 -8 -11 -10 7 -10 30 0 40 20 14 27 -12 3
-21 10 -21 15 0 6 7 7 16 4 9 -3 22 -6 29 -6z m-68 -126 c-3 -3 -12 -4 -19 -1
-8 3 -5 6 6 6 11 1 17 -2 13 -5z m-17 -34 c0 -5 -4 -10 -10 -10 -5 0 -10 5
-10 10 0 6 5 10 10 10 6 0 10 -4 10 -10z m-30 -15 c10 -12 10 -15 -3 -15 -8 0
-17 7 -21 15 -3 8 -2 15 3 15 5 0 14 -7 21 -15z"/>
<path d="M5880 5920 c8 -5 20 -10 25 -10 6 0 3 5 -5 10 -8 5 -19 10 -25 10 -5
0 -3 -5 5 -10z"/>
<path d="M5580 5933 c0 -12 3 -14 8 -7 4 7 16 14 27 17 15 4 14 5 -7 6 -21 1
-28 -4 -28 -16z"/>
<path d="M5692 5930 c-7 -11 -12 -25 -12 -32 1 -7 8 0 16 15 18 33 14 46 -4
17z"/>
<path d="M5612 5870 c-18 -29 -15 -38 4 -12 9 13 14 25 12 27 -2 2 -9 -5 -16
-15z"/>
<path d="M5543 5858 c-18 -24 -24 -38 -16 -38 10 0 36 40 30 46 -2 3 -9 -1
-14 -8z"/>
<path d="M4575 6010 c3 -5 11 -10 16 -10 6 0 7 5 4 10 -3 6 -11 10 -16 10 -6
0 -7 -4 -4 -10z"/>
<path d="M4710 5880 c0 -5 5 -10 11 -10 5 0 7 5 4 10 -3 6 -8 10 -11 10 -2 0
-4 -4 -4 -10z"/>
<path d="M4625 5860 c4 -6 11 -8 16 -5 14 9 11 15 -7 15 -8 0 -12 -5 -9 -10z"/>
<path d="M5075 5670 c-3 -5 -2 -10 4 -10 5 0 13 5 16 10 3 6 2 10 -4 10 -5 0
-13 -4 -16 -10z"/>
<path d="M6857 8290 c-132 -48 -237 -127 -307 -230 -105 -155 -166 -314 -194
-502 -28 -186 -20 -344 38 -813 57 -455 40 -780 -55 -1039 -96 -264 -330 -472
-614 -547 -124 -32 -363 -37 -520 -11 -112 19 -153 21 -109 6 86 -31 216 -108
240 -143 32 -47 48 -104 39 -147 -5 -28 -22 -53 -67 -97 -33 -32 -62 -56 -65
-53 -4 3 6 15 21 27 43 34 56 50 55 67 0 11 -2 12 -6 5 -2 -7 -11 -13 -18 -13
-7 0 -15 -6 -18 -12 -2 -7 -7 -10 -11 -7 -4 4 0 14 9 23 9 9 13 16 8 16 -5 0
-15 -6 -22 -12 -10 -11 -11 -9 -5 6 7 18 6 18 -20 1 l-26 -17 30 57 c16 31 30
64 30 74 0 12 2 13 9 3 4 -8 12 -13 17 -12 5 1 10 -4 13 -11 2 -6 -1 -9 -6 -6
-5 3 -10 0 -10 -7 0 -7 7 -13 16 -12 9 1 15 -6 13 -14 -2 -12 1 -11 11 2 8 10
18 14 22 10 4 -4 5 15 1 42 -6 46 -41 100 -58 90 -12 -7 -10 -24 3 -24 9 0 39
-24 39 -32 0 -2 -14 -3 -30 -4 -17 -1 -30 3 -30 8 0 5 6 6 13 2 8 -5 7 -2 -2
9 -11 14 -11 23 -3 42 10 22 9 25 -10 25 -12 0 -33 10 -46 23 l-25 22 16 -31
c9 -18 21 -53 27 -80 10 -43 8 -52 -15 -98 -58 -115 -236 -216 -381 -216 -65
0 -47 -14 48 -39 142 -38 212 -60 244 -80 142 -86 153 -496 17 -627 -29 -27
-82 -54 -107 -54 -26 0 -71 47 -74 76 -5 61 56 97 99 58 28 -26 44 -6 18 22
-53 57 -149 14 -149 -66 0 -55 13 -76 60 -100 77 -39 149 -22 219 54 111 122
155 321 132 600 -15 176 -5 189 155 227 169 40 299 80 384 119 66 29 108 41
183 50 132 16 251 51 373 110 401 194 584 556 553 1094 -13 242 -67 450 -195
757 -202 488 -227 575 -226 799 0 172 39 308 122 429 43 64 147 166 203 200
35 22 46 32 30 30 -5 0 -43 -14 -86 -29z m-213 -1416 c11 -27 7 -31 -36 -38
-83 -13 -84 -56 -2 -56 40 0 44 -2 44 -25 0 -24 -3 -25 -59 -25 -52 0 -62 3
-80 26 -26 33 -27 75 -3 97 40 37 125 50 136 21z m48 -214 c10 -12 18 -37 18
-55 0 -47 -29 -68 -100 -73 l-60 -4 0 37 c0 20 -7 43 -16 52 -22 22 -14 56 16
65 48 14 122 2 142 -22z m23 -162 c16 -7 25 -19 25 -35 0 -21 -4 -23 -54 -23
-31 0 -58 -5 -62 -12 -11 -18 26 -38 73 -38 39 0 43 -2 43 -25 0 -24 -3 -25
-55 -25 -46 0 -60 4 -80 24 -53 53 -38 115 32 134 51 13 49 13 78 0z m112 -39
c10 -20 10 -34 2 -58 -13 -38 -35 -36 -31 3 2 16 -3 29 -13 32 -8 3 -15 17
-15 31 0 20 4 24 22 21 13 -2 28 -15 35 -29z m-34 -228 c3 -27 3 -58 0 -69 -7
-28 -56 -44 -115 -36 -42 6 -48 10 -48 30 0 21 5 23 58 26 49 3 57 6 57 23 0
17 -8 20 -57 23 -54 3 -58 5 -58 27 0 24 2 25 79 25 l78 0 6 -49z m-3 -166 c0
-23 -3 -25 -49 -25 -88 0 -98 -53 -11 -64 46 -6 51 -9 48 -29 -2 -17 -10 -22
-35 -23 -39 -1 -103 20 -114 38 -11 16 -11 79 -1 95 12 20 53 32 110 32 49 1
52 0 52 -24z m-210 -192 c0 -12 -7 -29 -16 -38 -15 -15 -18 -15 -35 1 -23 21
-24 33 -4 62 14 18 19 20 35 9 11 -6 20 -22 20 -34z m135 -6 l50 -13 3 -54 c3
-67 -14 -90 -71 -90 -22 0 -55 5 -72 11 -26 10 -31 16 -27 36 4 20 9 23 29 18
70 -17 83 -17 89 -1 9 24 -14 45 -57 52 -33 6 -39 10 -39 30 0 28 19 30 95 11z
m-163 -284 c10 -9 18 -22 18 -29 0 -14 30 -34 49 -34 6 0 11 14 11 30 0 28 2
30 20 20 13 -7 20 -21 20 -40 0 -28 -29 -70 -49 -70 -25 0 -80 32 -86 50 -7
23 -25 27 -25 5 0 -18 -21 -20 -37 -4 -12 12 -8 31 15 67 17 26 39 28 64 5z
m2 -148 c24 -10 36 -22 36 -35 0 -29 -16 -33 -55 -14 -26 12 -35 23 -35 40 0
28 6 29 54 9z m-93 -74 c45 -45 49 -69 15 -100 -31 -29 -62 -24 -58 9 8 66 7
75 -10 78 -11 2 -22 -6 -30 -23 -15 -32 -42 -29 -46 6 -2 19 5 33 24 48 38 30
61 26 105 -18z m-1257 -606 c-6 -14 -44 -22 -44 -10 0 4 29 19 47 24 1 1 0 -6
-3 -14z m-50 -21 c5 -14 4 -15 -9 -4 -17 14 -19 20 -6 20 5 0 12 -7 15 -16z
m-29 -14 c-3 -5 -12 -10 -18 -10 -7 0 -6 4 3 10 19 12 23 12 15 0z m85 -30
c-24 -19 -40 -25 -40 -15 0 5 51 34 60 34 3 0 -6 -8 -20 -19z m-115 -50 c-3
-5 -10 -10 -16 -10 -5 0 -9 5 -9 10 0 6 7 10 16 10 8 0 12 -4 9 -10z"/>
<path d="M6581 6631 c-23 -15 5 -53 36 -49 34 4 54 35 33 48 -19 12 -51 12
-69 1z"/>
<path d="M6446 7999 c-151 -139 -243 -326 -293 -599 -15 -83 -17 -167 -18
-655 -1 -616 -2 -628 -65 -817 -79 -236 -223 -419 -433 -548 -90 -56 -287
-139 -397 -169 l-75 -20 100 0 c436 -2 735 170 874 503 36 87 75 243 92 371
15 109 17 433 5 765 -20 562 54 929 236 1167 27 35 47 63 45 63 -2 0 -34 -28
-71 -61z"/>
<path d="M3815 5716 c33 -13 84 -35 112 -50 29 -14 57 -26 63 -26 32 0 164
-93 241 -169 112 -112 227 -215 313 -279 l69 -52 96 -1 96 0 -91 -23 c-98 -25
-121 -35 -174 -76 -142 -108 -349 -62 -394 87 -6 19 -2 24 33 34 l40 12 -26
33 c-32 42 -106 92 -149 100 -49 9 -98 -12 -159 -68 -82 -75 -84 -83 -20 -84
67 0 89 -15 167 -113 35 -43 79 -90 100 -105 51 -36 126 -53 176 -38 56 17
163 15 243 -5 38 -9 69 -19 69 -23 0 -4 -17 -11 -37 -16 -20 -5 -38 -14 -40
-20 -6 -18 53 -37 92 -30 43 8 65 30 65 64 0 57 70 148 176 230 l29 23 -30
-18 c-16 -9 -49 -32 -72 -50 -43 -34 -60 -42 -47 -21 5 7 3 8 -5 4 -7 -5 -10
-14 -8 -20 3 -7 -8 -37 -25 -67 -17 -30 -31 -67 -32 -83 -1 -16 -6 -31 -12
-33 -7 -2 -9 8 -6 27 4 26 2 29 -14 23 -16 -6 -17 -5 -4 9 8 9 18 14 22 12 4
-3 15 7 24 22 21 32 6 46 -36 34 -44 -13 -52 1 -27 45 28 50 129 105 195 105
23 0 42 4 42 10 0 5 20 15 45 21 25 6 44 14 41 16 -2 2 -33 11 -67 19 -35 8
-105 35 -156 59 -93 45 -135 80 -309 252 -39 39 -102 89 -140 110 -128 74
-310 130 -449 138 l-80 4 60 -23z m663 -743 c-10 -2 -18 -8 -18 -13 0 -10 -70
-43 -77 -36 -3 3 3 9 13 12 10 4 30 16 43 26 13 10 31 17 40 17 13 -1 13 -2
-1 -6z m203 -46 c-10 -9 -11 -8 -5 6 3 10 9 15 12 12 3 -3 0 -11 -7 -18z"/>
<path d="M4937 5102 c-69 -52 -103 -115 -117 -214 -5 -32 -18 -71 -30 -88
l-22 -31 63 6 c113 11 308 130 324 197 7 32 -23 97 -54 116 -27 16 -27 2 -1
-21 15 -13 20 -29 20 -66 0 -45 -3 -52 -37 -80 -42 -35 -120 -55 -157 -41 -17
6 -29 22 -37 50 -15 48 -2 79 59 151 19 22 32 42 30 44 -3 3 -21 -7 -41 -23z"/>
<path d="M4212 4846 c-132 -72 -285 -208 -362 -323 -79 -118 -117 -271 -91
-363 6 -20 9 -13 14 34 17 165 154 292 405 376 48 16 130 36 182 44 134 21
367 39 408 31 20 -4 32 -2 28 3 -3 5 -27 12 -53 15 -54 7 -174 42 -278 82 -60
23 -79 26 -137 21 -61 -5 -68 -4 -68 11 0 20 36 84 54 95 6 5 0 8 -14 8 -14 0
-53 -16 -88 -34z"/>
<path d="M5266 4872 c-3 -5 1 -9 9 -9 8 0 12 4 9 9 -3 4 -7 8 -9 8 -2 0 -6 -4
-9 -8z"/>
<path d="M4040 3416 l0 -226 35 0 35 0 2 167 3 166 39 -59 c22 -32 75 -107
118 -166 74 -101 82 -108 114 -108 l34 0 0 220 0 220 -35 0 -36 0 3 -160 c2
-88 1 -160 -2 -160 -3 0 -57 72 -120 160 -88 123 -120 160 -137 160 -12 0 -28
3 -37 6 -14 5 -16 -18 -16 -220z"/>
<path d="M4938 3632 c-19 -2 -56 -34 -125 -105 l-98 -102 -3 103 -3 102 -35 0
-36 0 3 -220 3 -220 33 0 33 0 0 78 c0 71 3 81 25 102 l24 23 21 -24 c11 -13
46 -59 78 -101 55 -76 58 -78 100 -78 23 0 42 3 42 6 0 3 -39 56 -86 116 -47
60 -87 115 -90 121 -2 7 36 53 86 102 49 49 90 92 90 95 0 6 -20 7 -62 2z"/>
<path d="M5180 3414 l0 -224 35 0 35 0 0 100 0 100 120 0 120 0 0 -101 0 -100
33 3 32 3 3 218 2 217 -35 0 -35 0 0 -90 0 -90 -120 0 -119 0 -3 92 -3 92 -32
2 -33 2 0 -224z"/>
<path d="M2902 3413 l3 -218 100 -3 c157 -5 212 23 222 111 6 52 -7 81 -48
106 l-29 18 24 11 c28 12 47 64 39 105 -3 14 -18 38 -35 54 -28 27 -33 28
-154 31 l-124 4 2 -219z m228 137 c25 -25 25 -41 -1 -74 -19 -24 -27 -26 -90
-26 l-69 0 0 60 0 60 70 0 c57 0 74 -4 90 -20z m8 -176 c30 -21 30 -76 0 -104
-18 -16 -35 -20 -95 -20 l-73 0 0 70 0 70 73 0 c49 0 80 -5 95 -16z"/>
<path d="M3580 3610 c-9 -17 -150 -346 -171 -397 -8 -21 -6 -23 26 -23 33 0
36 3 64 65 l30 65 73 -1 c109 -1 119 -6 144 -69 21 -53 23 -55 63 -58 l41 -3
-36 83 c-50 115 -112 265 -132 316 -15 39 -19 42 -54 42 -27 0 -40 -5 -48 -20z
m78 -135 c16 -44 33 -88 37 -97 6 -16 0 -18 -70 -18 -69 0 -76 2 -71 18 20 54
71 180 73 178 1 0 15 -37 31 -81z"/>
<path d="M5762 3462 c3 -161 4 -170 28 -205 34 -50 81 -72 155 -71 70 0 113
20 147 66 22 31 23 44 26 206 l3 172 -29 0 -30 0 -4 -152 c-2 -98 -9 -162 -17
-179 -32 -64 -128 -77 -180 -25 -26 26 -26 29 -29 191 l-3 165 -36 0 -35 0 4
-168z"/>
<path d="M6320 3410 l0 -220 35 0 35 0 0 100 0 100 125 0 125 0 0 -100 0 -100
35 0 35 0 0 220 0 220 -35 0 -35 0 0 -90 0 -90 -125 0 -125 0 0 90 0 90 -35 0
-35 0 0 -220z"/>
<path d="M6993 3410 l-90 -220 36 0 c35 0 37 2 60 60 21 52 28 60 55 65 43 7
145 0 155 -11 5 -5 16 -33 27 -61 17 -51 19 -53 56 -53 21 0 38 2 38 5 0 3
-32 83 -71 177 -39 95 -79 192 -88 216 -15 39 -19 42 -52 42 l-36 0 -90 -220z
m160 55 c14 -38 28 -78 32 -87 6 -16 0 -18 -64 -18 -39 0 -71 3 -71 8 0 18 66
180 71 174 3 -4 18 -38 32 -77z"/>
<path d="M4181 2923 c-38 -31 -23 -69 37 -94 54 -23 64 -36 51 -61 -11 -21
-68 -25 -87 -6 -6 6 -15 9 -19 5 -12 -13 13 -28 54 -34 35 -5 43 -2 61 22 28
35 17 58 -43 84 -50 22 -64 43 -45 66 15 18 61 20 78 3 6 -6 15 -9 19 -5 11
12 -11 27 -48 33 -25 4 -41 1 -58 -13z"/>
<path d="M5921 2833 c1 -37 4 -79 8 -93 7 -24 7 -25 13 -3 5 18 14 22 59 26
l54 3 -57 2 -58 2 0 59 c0 33 -4 63 -10 66 -6 4 -10 -19 -9 -62z"/>
<path d="M5600 2859 c-53 -21 -76 -82 -45 -125 34 -49 124 -55 165 -12 23 25
26 84 6 110 -25 34 -80 45 -126 27z m100 -29 c28 -28 27 -84 -2 -104 -52 -37
-138 -3 -138 54 0 59 96 94 140 50z"/>
<path d="M4497 2849 c-31 -18 -48 -72 -36 -108 20 -57 105 -80 150 -40 23 19
23 20 2 10 -12 -6 -40 -11 -62 -11 -32 0 -44 5 -56 24 -24 36 -16 85 18 110
24 17 32 19 67 9 22 -5 40 -7 40 -3 0 21 -92 27 -123 9z"/>
<path d="M4820 2770 c0 -53 4 -90 10 -90 6 0 10 18 10 40 l0 40 62 0 c76 0 73
8 -5 12 l-57 3 0 42 c0 24 -4 43 -10 43 -6 0 -10 -37 -10 -90z"/>
<path d="M4970 2764 c0 -61 4 -93 10 -89 6 3 10 46 10 96 0 53 -4 89 -10 89
-6 0 -10 -39 -10 -96z"/>
<path d="M5218 2844 c-76 -41 -58 -154 28 -170 87 -16 158 79 106 142 -36 45
-85 55 -134 28z m109 -26 c50 -46 13 -128 -58 -128 -50 0 -79 27 -79 75 0 68
85 102 137 53z"/>
</g>
</svg>
